<svg xmlns:xlink="http://www.w3.org/1999/xlink" xmlns="http://www.w3.org/2000/svg" class="css-ze2te4 css-qd6ojx" viewBox="0 0 76.08695652173914 50.96102680775188" width="110"  height="74" ><g transform="translate(-4.22697323363036, -16.90810416708583) scale(0.8453946467260719)" class="css-19vaxj7" fill="#8F8F8F"><path xmlns="http://www.w3.org/2000/svg" d="M90,65.124V46.44l3.564-1.677C94.44,44.35,95,43.468,95,42.5s-0.56-1.85-1.436-2.262l-42.5-20  c-0.674-0.317-1.455-0.317-2.129,0l-42.5,20C5.56,40.65,5,41.532,5,42.5s0.56,1.85,1.436,2.262l16.064,7.56V65  c0,7.71,13.364,15,27.5,15s27.5-7.29,27.5-15V52.322l7.5-3.529v16.331l-4.736,9.472c-0.481,0.962-0.292,2.125,0.469,2.886  c1.865,1.866,4.316,2.799,6.768,2.799s4.902-0.933,6.768-2.799c0.761-0.761,0.95-1.923,0.469-2.886L90,65.124z M72.5,65  c0,3.423-9.502,10-22.5,10s-22.5-6.577-22.5-10V54.675l21.436,10.087C49.272,64.921,49.637,65,50,65s0.728-0.079,1.064-0.238  L72.5,54.675V65z M50,59.737L13.371,42.5L50,25.263L86.629,42.5L50,59.737z M85.695,74.914l1.805-3.609l1.805,3.609  C88.156,75.406,86.844,75.406,85.695,74.914z" fill="#8F8F8F"></path></g></svg>